<mxfile host="app.diagrams.net" agent="Mozilla/5.0 (Windows NT 10.0; Win64; x64; rv:138.0) Gecko/20100101 Firefox/138.0" version="26.3.0">
  <diagram name="Page-1" id="nUPIWt_2ezuW6HuRJEXQ">
    <mxGraphModel dx="786" dy="471" grid="1" gridSize="10" guides="1" tooltips="1" connect="1" arrows="1" fold="1" page="1" pageScale="1" pageWidth="3300" pageHeight="4681" math="0" shadow="0">
      <root>
        <mxCell id="0" />
        <mxCell id="1" parent="0" />
        <mxCell id="vuULhk1I83DKLWwXU8eo-33" value="2a Segmentation" style="text;html=1;align=left;verticalAlign=top;whiteSpace=wrap;rounded=0;dashed=1;fillColor=#f5f5f5;fontColor=#333333;strokeColor=#666666;strokeWidth=2;" name="text" vertex="1" parent="1">
          <mxGeometry x="400" y="760" width="370" height="220" as="geometry" />
        </mxCell>
        <mxCell id="vuULhk1I83DKLWwXU8eo-32" value="1a CNN Training" style="text;html=1;align=left;verticalAlign=top;whiteSpace=wrap;rounded=0;dashed=1;fillColor=#f5f5f5;fontColor=#333333;strokeColor=#666666;strokeWidth=2;" name="text" vertex="1" parent="1">
          <mxGeometry x="400" y="540" width="370" height="210" as="geometry" />
        </mxCell>
        <mxCell id="vuULhk1I83DKLWwXU8eo-31" value="1d Defuzzification" style="text;html=1;align=left;verticalAlign=top;whiteSpace=wrap;rounded=0;dashed=1;fillColor=#f5f5f5;fontColor=#333333;strokeColor=#666666;strokeWidth=2;" name="text" vertex="1" parent="1">
          <mxGeometry x="190" y="360" width="200" height="390" as="geometry" />
        </mxCell>
        <mxCell id="vuULhk1I83DKLWwXU8eo-30" value="1d Intensification" style="text;html=1;align=left;verticalAlign=top;whiteSpace=wrap;rounded=0;dashed=1;fillColor=#f5f5f5;fontColor=#333333;strokeColor=#666666;strokeWidth=2;" name="text" vertex="1" parent="1">
          <mxGeometry x="400" y="360" width="370" height="170" as="geometry" />
        </mxCell>
        <mxCell id="vuULhk1I83DKLWwXU8eo-29" value="1d Fuzzification" style="text;html=1;align=left;verticalAlign=top;whiteSpace=wrap;rounded=0;dashed=1;fillColor=#f5f5f5;fontColor=#333333;strokeColor=#666666;strokeWidth=2;" name="text" vertex="1" parent="1">
          <mxGeometry x="400" y="200" width="370" height="150" as="geometry" />
        </mxCell>
        <mxCell id="vuULhk1I83DKLWwXU8eo-3" style="edgeStyle=orthogonalEdgeStyle;rounded=0;orthogonalLoop=1;jettySize=auto;html=1;entryX=0;entryY=0.5;entryDx=0;entryDy=0;" edge="1" parent="1" source="vuULhk1I83DKLWwXU8eo-1" target="vuULhk1I83DKLWwXU8eo-2">
          <mxGeometry relative="1" as="geometry" />
        </mxCell>
        <mxCell id="vuULhk1I83DKLWwXU8eo-1" value="data:image&#xa;BUS Image" style="rectangle;fillColor=#fff2cc;strokeColor=#d6b656;" name="data" vertex="1" parent="1">
          <mxGeometry x="340" y="230" width="100" height="50" as="geometry" />
        </mxCell>
        <mxCell id="vuULhk1I83DKLWwXU8eo-5" style="edgeStyle=orthogonalEdgeStyle;rounded=0;orthogonalLoop=1;jettySize=auto;html=1;exitX=1;exitY=0.5;exitDx=0;exitDy=0;entryX=0.5;entryY=0;entryDx=0;entryDy=0;" edge="1" parent="1" source="vuULhk1I83DKLWwXU8eo-2" target="vuULhk1I83DKLWwXU8eo-4">
          <mxGeometry relative="1" as="geometry" />
        </mxCell>
        <mxCell id="vuULhk1I83DKLWwXU8eo-2" value="transform" style="rounded=1;whiteSpace=wrap;html=1;arcSize=50;fillColor=#f8cecc;strokeColor=#b85450;" name="transform" vertex="1" parent="1">
          <mxGeometry x="520" y="230" width="100" height="50" as="geometry" />
        </mxCell>
        <mxCell id="vuULhk1I83DKLWwXU8eo-7" style="edgeStyle=orthogonalEdgeStyle;rounded=0;orthogonalLoop=1;jettySize=auto;html=1;exitX=0.5;exitY=1;exitDx=0;exitDy=0;entryX=1;entryY=0.5;entryDx=0;entryDy=0;" edge="1" parent="1" source="vuULhk1I83DKLWwXU8eo-4" target="vuULhk1I83DKLWwXU8eo-6">
          <mxGeometry relative="1" as="geometry" />
        </mxCell>
        <mxCell id="vuULhk1I83DKLWwXU8eo-4" value="data:image&#xa;Fuzzy Image" style="rectangle;fillColor=#fff2cc;strokeColor=#d6b656;" name="data" vertex="1" parent="1">
          <mxGeometry x="650" y="330" width="100" height="50" as="geometry" />
        </mxCell>
        <mxCell id="vuULhk1I83DKLWwXU8eo-9" style="edgeStyle=orthogonalEdgeStyle;rounded=0;orthogonalLoop=1;jettySize=auto;html=1;exitX=0;exitY=0.5;exitDx=0;exitDy=0;entryX=1;entryY=0.5;entryDx=0;entryDy=0;" edge="1" parent="1" source="vuULhk1I83DKLWwXU8eo-6" target="vuULhk1I83DKLWwXU8eo-8">
          <mxGeometry relative="1" as="geometry" />
        </mxCell>
        <mxCell id="vuULhk1I83DKLWwXU8eo-6" value="transform" style="rounded=1;whiteSpace=wrap;html=1;arcSize=50;fillColor=#f8cecc;strokeColor=#b85450;" name="transform" vertex="1" parent="1">
          <mxGeometry x="520" y="430" width="100" height="50" as="geometry" />
        </mxCell>
        <mxCell id="vuULhk1I83DKLWwXU8eo-12" style="edgeStyle=orthogonalEdgeStyle;rounded=0;orthogonalLoop=1;jettySize=auto;html=1;exitX=0;exitY=0.5;exitDx=0;exitDy=0;entryX=0.5;entryY=0;entryDx=0;entryDy=0;" edge="1" parent="1" source="vuULhk1I83DKLWwXU8eo-8" target="vuULhk1I83DKLWwXU8eo-10">
          <mxGeometry relative="1" as="geometry" />
        </mxCell>
        <mxCell id="vuULhk1I83DKLWwXU8eo-8" value="data:image&#xa;Enhanced Image" style="rectangle;fillColor=#fff2cc;strokeColor=#d6b656;" name="data" vertex="1" parent="1">
          <mxGeometry x="340" y="430" width="100" height="50" as="geometry" />
        </mxCell>
        <mxCell id="vuULhk1I83DKLWwXU8eo-14" style="edgeStyle=orthogonalEdgeStyle;rounded=0;orthogonalLoop=1;jettySize=auto;html=1;exitX=0.5;exitY=1;exitDx=0;exitDy=0;entryX=0;entryY=0.5;entryDx=0;entryDy=0;" edge="1" parent="1" source="vuULhk1I83DKLWwXU8eo-10" target="vuULhk1I83DKLWwXU8eo-13">
          <mxGeometry relative="1" as="geometry" />
        </mxCell>
        <mxCell id="vuULhk1I83DKLWwXU8eo-10" value="transform" style="rounded=1;whiteSpace=wrap;html=1;arcSize=50;fillColor=#f8cecc;strokeColor=#b85450;" name="transform" vertex="1" parent="1">
          <mxGeometry x="210" y="530" width="100" height="50" as="geometry" />
        </mxCell>
        <mxCell id="vuULhk1I83DKLWwXU8eo-16" style="edgeStyle=orthogonalEdgeStyle;rounded=0;orthogonalLoop=1;jettySize=auto;html=1;exitX=1;exitY=0.5;exitDx=0;exitDy=0;entryX=0;entryY=0.5;entryDx=0;entryDy=0;" edge="1" parent="1" source="vuULhk1I83DKLWwXU8eo-13" target="vuULhk1I83DKLWwXU8eo-15">
          <mxGeometry relative="1" as="geometry" />
        </mxCell>
        <mxCell id="vuULhk1I83DKLWwXU8eo-13" value="data:image&#xa;Defuzzified Image" style="rectangle;fillColor=#fff2cc;strokeColor=#d6b656;" name="data" vertex="1" parent="1">
          <mxGeometry x="340" y="630" width="100" height="50" as="geometry" />
        </mxCell>
        <mxCell id="vuULhk1I83DKLWwXU8eo-22" style="edgeStyle=orthogonalEdgeStyle;rounded=0;orthogonalLoop=1;jettySize=auto;html=1;exitX=1;exitY=0.5;exitDx=0;exitDy=0;entryX=0.5;entryY=0;entryDx=0;entryDy=0;" edge="1" parent="1" source="vuULhk1I83DKLWwXU8eo-15" target="vuULhk1I83DKLWwXU8eo-17">
          <mxGeometry relative="1" as="geometry" />
        </mxCell>
        <mxCell id="vuULhk1I83DKLWwXU8eo-15" value="generate:train" style="rounded=1;whiteSpace=wrap;html=1;arcSize=50;fillColor=#e1d5e7;strokeColor=#9673a6;" name="generate:train" vertex="1" parent="1">
          <mxGeometry x="520" y="630" width="100" height="50" as="geometry" />
        </mxCell>
        <mxCell id="vuULhk1I83DKLWwXU8eo-24" style="edgeStyle=orthogonalEdgeStyle;rounded=0;orthogonalLoop=1;jettySize=auto;html=1;exitX=0.5;exitY=1;exitDx=0;exitDy=0;entryX=1;entryY=0.5;entryDx=0;entryDy=0;" edge="1" parent="1" source="vuULhk1I83DKLWwXU8eo-17" target="vuULhk1I83DKLWwXU8eo-23">
          <mxGeometry relative="1" as="geometry" />
        </mxCell>
        <mxCell id="vuULhk1I83DKLWwXU8eo-17" value="model:statistical&#xa;CNN" style="shape=hexagon;perimeter=hexagonPerimeter2;fillColor=#b0e3e6;strokeColor=#0e8088;" name="model" vertex="1" parent="1">
          <mxGeometry x="640" y="730" width="120" height="50" as="geometry" />
        </mxCell>
        <mxCell id="vuULhk1I83DKLWwXU8eo-28" style="edgeStyle=orthogonalEdgeStyle;rounded=0;orthogonalLoop=1;jettySize=auto;html=1;exitX=0.5;exitY=1;exitDx=0;exitDy=0;entryX=0.5;entryY=0;entryDx=0;entryDy=0;" edge="1" parent="1" source="vuULhk1I83DKLWwXU8eo-23" target="vuULhk1I83DKLWwXU8eo-27">
          <mxGeometry relative="1" as="geometry" />
        </mxCell>
        <mxCell id="vuULhk1I83DKLWwXU8eo-23" value="infer:deduce" style="rounded=1;whiteSpace=wrap;html=1;arcSize=50;fillColor=#bac8d3;strokeColor=#23445d;" name="infer:deduce" vertex="1" parent="1">
          <mxGeometry x="520" y="830" width="100" height="50" as="geometry" />
        </mxCell>
        <mxCell id="vuULhk1I83DKLWwXU8eo-35" style="edgeStyle=orthogonalEdgeStyle;rounded=0;orthogonalLoop=1;jettySize=auto;html=1;exitX=1;exitY=0.5;exitDx=0;exitDy=0;entryX=0;entryY=0.5;entryDx=0;entryDy=0;" edge="1" parent="1" source="vuULhk1I83DKLWwXU8eo-25" target="vuULhk1I83DKLWwXU8eo-23">
          <mxGeometry relative="1" as="geometry" />
        </mxCell>
        <mxCell id="vuULhk1I83DKLWwXU8eo-25" value="data:image&#xa;Patient BUS Image" style="rectangle;fillColor=#fff2cc;strokeColor=#d6b656;" name="data" vertex="1" parent="1">
          <mxGeometry x="340" y="830" width="100" height="50" as="geometry" />
        </mxCell>
        <mxCell id="vuULhk1I83DKLWwXU8eo-27" value="symbol&#xa;Segmented Images&#xa;with Labels" style="rectangle;fillColor=#dae8fc;strokeColor=#6c8ebf;" name="symbol" vertex="1" parent="1">
          <mxGeometry x="520" y="960" width="100" height="50" as="geometry" />
        </mxCell>
      </root>
    </mxGraphModel>
  </diagram>
</mxfile>
